<svg width="48" height="48" viewBox="0 0 48 48" fill="none" xmlns="http://www.w3.org/2000/svg">
<path d="M6.35041 34.19L0.574731 24L6.35045 13.8099L12.2874 3.71312L24 3.62001L35.7126 3.71312L41.6495 13.8099L47.4253 24L41.6496 34.19L35.7126 44.2869L24 44.38L12.2874 44.2869L6.35041 34.19Z" fill="#E5A84C" fill-opacity="0.38" stroke="#FFD233"/>
<path d="M17 13C17 11 18.5 9 21 9H27C29.5 9 31 11 31 13V18H37C37.5304 18 38.0391 18.2107 38.4142 18.5858C38.7893 18.9609 39 19.4696 39 20V23C39.0001 23.5132 38.803 24.0068 38.4493 24.3787C38.0957 24.7506 37.6126 24.9723 37.1 24.998L34.095 35.136C33.85 35.9631 33.3443 36.6888 32.6531 37.2049C31.962 37.721 31.1226 37.9999 30.26 38H17.716C16.8606 38 16.0277 37.7257 15.3396 37.2174C14.6515 36.7091 14.1445 35.9936 13.893 35.176L10.757 24.986C10.2721 24.9266 9.82574 24.6919 9.50206 24.326C9.17839 23.9602 8.9998 23.4885 9 23V20C9 19.4696 9.21071 18.9609 9.58579 18.5858C9.96086 18.2107 10.4696 18 11 18H17V13ZM19 18H29V13C29 10.5 27.5 10 26 10H22C20.5 10 19 10.5 19 13V18ZM29 20H11V23H37V20H31V21C31 21.2652 30.8946 21.5196 30.7071 21.7071C30.5196 21.8946 30.2652 22 30 22C29.7348 22 29.4804 21.8946 29.2929 21.7071C29.1054 21.5196 29 21.2652 29 21V20ZM33.314 25L34.224 25.91L34.962 25.172L35.012 25H33.314ZM29.981 25.91L30.891 25H29.071L29.981 25.91ZM24.83 25L25.74 25.91L26.65 25H24.83ZM21.497 25.91L22.407 25H20.587L21.497 25.91ZM17.254 25.91L18.164 25H16.344L17.254 25.91ZM12.854 25L13.104 25.816L13.92 25H12.854ZM13.817 28.131L14.103 29.06L14.425 28.738L13.817 28.131ZM34.301 27.401L34.224 27.324L32.81 28.738L33.655 29.583L34.301 27.401ZM33.175 31.201L33.331 30.674L32.102 29.445L30.688 30.86L32.102 32.274L33.175 31.201ZM32.362 33.947L32.102 33.688L30.688 35.102L31.296 35.71C31.712 35.459 32.032 35.058 32.178 34.568L32.362 33.948V33.947ZM30.172 36L29.982 35.81L29.791 36H30.171H30.172ZM28.376 36L29.274 35.102L27.86 33.688L26.446 35.102L27.343 36H28.376ZM25.548 36H25.929L25.739 35.81L25.548 36ZM24.134 36L25.031 35.102L23.617 33.688L22.203 35.102L23.101 36H24.134ZM21.305 36H21.686L21.496 35.81L21.306 36H21.305ZM19.891 36L20.789 35.102L19.374 33.688L17.96 35.102L18.858 36H19.891ZM17.422 35.978L17.253 35.809L17.145 35.917C17.235 35.944 17.328 35.964 17.422 35.978ZM16.268 35.38L16.546 35.102L15.703 34.259L15.804 34.589C15.898 34.892 16.059 35.161 16.268 35.38ZM15.074 32.217L15.132 32.274L16.546 30.86L15.132 29.445L14.436 30.141L15.074 32.217ZM15.132 25.203L13.718 26.617L15.132 28.031L16.546 26.617L15.132 25.203ZM17.253 27.324L15.84 28.738L17.254 30.153L18.668 28.738L17.254 27.324H17.253ZM19.374 29.445L17.96 30.86L19.374 32.274L20.789 30.86L19.374 29.445ZM20.082 28.738L21.496 30.153L22.91 28.738L21.496 27.324L20.082 28.738ZM21.496 31.567L20.082 32.981L21.496 34.395L22.91 32.981L21.496 31.567ZM23.617 32.274L25.031 30.86L23.617 29.445L22.203 30.86L23.617 32.274ZM19.374 28.031L20.789 26.617L19.374 25.203L17.96 26.617L19.374 28.031ZM28.567 32.981L29.981 34.395L31.395 32.981L29.981 31.567L28.567 32.981ZM31.395 28.738L29.981 27.324L28.567 28.738L29.981 30.153L31.395 28.738ZM25.738 34.395L27.153 32.981L25.738 31.567L24.324 32.981L25.738 34.395ZM26.446 26.617L27.86 28.031L29.274 26.617L27.86 25.203L26.446 26.617ZM25.031 26.617L23.617 25.203L22.203 26.617L23.617 28.031L25.031 26.617ZM32.103 28.031L33.517 26.617L32.102 25.203L30.688 26.617L32.103 28.031ZM24.324 28.738L25.738 30.153L27.153 28.738L25.738 27.324L24.324 28.738ZM17.254 34.395L18.667 32.981L17.253 31.567L15.84 32.98L17.254 34.394V34.395ZM26.446 30.86L27.86 32.274L29.274 30.86L27.86 29.445L26.446 30.86Z" fill="#270935"/>
</svg>
