<svg width="28" height="30" viewBox="0 0 28 30" fill="none" xmlns="http://www.w3.org/2000/svg">
<path d="M3.53341 27.6134L5.29341 25.1067C3.84141 23.8534 2.67654 22.3019 1.87815 20.5578C1.07975 18.8138 0.666571 16.9182 0.666748 15.0001C0.666748 11.4638 2.07151 8.07246 4.57199 5.57197C7.07248 3.07148 10.4639 1.66673 14.0001 1.66673C16.3734 1.66673 18.5867 2.28006 20.5201 3.36006L22.2801 0.853394L24.4667 2.38673L22.7067 4.89339C25.5334 7.34673 27.3334 10.9601 27.3334 15.0001C27.3334 18.5363 25.9287 21.9277 23.4282 24.4282C20.9277 26.9286 17.5363 28.3334 14.0001 28.3334C11.6267 28.3334 9.41341 27.7201 7.48008 26.6401L5.72008 29.1467L3.53341 27.6134ZM14.0001 4.33339C11.1711 4.33339 8.458 5.4572 6.45761 7.45759C4.45722 9.45798 3.33341 12.1711 3.33341 15.0001C3.33341 18.1334 4.66675 20.9467 6.84008 22.9067L18.9734 5.56006C17.4414 4.74925 15.7334 4.32798 14.0001 4.33339M14.0001 25.6667C16.8291 25.6667 19.5422 24.5429 21.5426 22.5425C23.5429 20.5421 24.6667 17.829 24.6667 15.0001C24.6667 11.8667 23.3334 9.05339 21.1601 7.09339L9.02675 24.4401C10.5067 25.2267 12.2001 25.6667 14.0001 25.6667V25.6667Z" fill="#270935"/>
</svg>
