<svg width="32" height="32" viewBox="0 0 32 32" fill="none" xmlns="http://www.w3.org/2000/svg">
<g clip-path="url(#clip0_23_105)">
<path d="M31.0208 0.647964C30.928 0.416783 30.7496 0.230289 30.5228 0.127279C30.2959 0.0242691 30.0381 0.0126746 29.803 0.0949075C29.5678 0.17714 29.3734 0.346869 29.2602 0.568785C29.147 0.7907 29.1237 1.04772 29.1952 1.28636C30.6816 5.55836 27.7312 8.74876 25.4816 10.4576L24.5728 9.15516C24.2672 8.71836 23.584 8.35516 23.0528 8.34876L17.952 8.37116C17.3289 8.38998 16.7225 8.57684 16.1968 8.91196L1.1664 19.4512C0.816792 19.6972 0.578911 20.0717 0.504841 20.4927C0.430771 20.9138 0.526547 21.347 0.7712 21.6976L7.6016 31.4704C8.1136 32.1984 8.9312 32.1104 9.6608 31.6016L24.6912 21.0608C25.1232 20.7552 25.6224 20.096 25.7984 19.592L27.3952 14.56C27.5712 14.0576 27.464 13.2912 27.1584 12.8544L26.6048 12.0608C29.6256 9.74556 32.7616 5.65436 31.0208 0.647964ZM24.0272 15.6208C23.7503 15.8146 23.4379 15.952 23.1079 16.025C22.7779 16.0981 22.4368 16.1054 22.1039 16.0465C21.7711 15.9877 21.4531 15.8639 21.1682 15.6821C20.8832 15.5003 20.6369 15.2642 20.4432 14.9872C20.0511 14.4266 19.8974 13.7334 20.0159 13.0596C20.1344 12.3859 20.5154 11.7867 21.0752 11.3936C21.5141 11.0861 22.0381 10.9234 22.574 10.9283C23.1098 10.9331 23.6308 11.1053 24.064 11.4208C23.6288 11.6832 23.3296 11.8368 23.2736 11.8608C23.0753 11.9553 22.9149 12.1145 22.8189 12.3121C22.7228 12.5097 22.6967 12.7341 22.7449 12.9485C22.793 13.1629 22.9126 13.3545 23.0839 13.4921C23.2553 13.6296 23.4683 13.7049 23.688 13.7056C23.8256 13.7056 23.9664 13.6736 24.0992 13.6112C24.4096 13.464 24.7424 13.2896 25.0896 13.0832C25.1695 13.5633 25.1121 14.0562 24.9242 14.5051C24.7362 14.954 24.4253 15.3408 24.0272 15.6208Z" fill="#270935"/>
</g>
<defs>
<clipPath id="clip0_23_105">
<rect width="32" height="32" fill="white"/>
</clipPath>
</defs>
</svg>
