<svg width="68" height="44" viewBox="0 0 68 44" fill="none" xmlns="http://www.w3.org/2000/svg">
<path d="M39.8503 22.498L44.7601 19.5772L49.7882 22.2893L54.7724 25.0809L54.9378 30.7913L55.0123 36.5036L50.1496 39.502L45.2399 42.4228L40.2118 39.7107L35.2276 36.9191L35.0622 31.2087L34.9877 25.4964L39.8503 22.498Z" fill="#E5A84C" fill-opacity="0.38" stroke="#FFD233"/>
<path d="M18.0997 22.7473L23.0094 19.8266L28.0375 22.5386L33.0218 25.3302L33.1871 31.0406L33.2617 36.7529L28.399 39.7514L23.4892 42.6721L18.4612 39.9601L13.4769 37.1685L13.3115 31.458L13.237 25.7457L18.0997 22.7473Z" fill="#E5A84C" fill-opacity="0.38" stroke="#FFD233"/>
<path d="M7.09967 3.7473L12.0094 0.826574L17.0375 3.5386L22.0218 6.33019L22.1871 12.0406L22.2617 17.7529L17.399 20.7514L12.4892 23.6721L7.46116 20.9601L2.47688 18.1685L2.31153 12.458L2.23698 6.74571L7.09967 3.7473Z" fill="#E5A84C" fill-opacity="0.38" stroke="#FFD233"/>
<path d="M29.03 3.39172L34 0.574731L38.97 3.39173L43.8946 6.28736L43.94 12L43.8946 17.7126L38.97 20.6083L34 23.4253L29.03 20.6083L24.1054 17.7126L24.06 12L24.1054 6.28737L29.03 3.39172Z" fill="#E5A84C" fill-opacity="0.38" stroke="#FFD233"/>
<path d="M51.03 3.39172L56 0.574731L60.97 3.39173L65.8946 6.28736L65.94 12L65.8946 17.7126L60.97 20.6083L56 23.4253L51.03 20.6083L46.1054 17.7126L46.06 12L46.1054 6.28737L51.03 3.39172Z" fill="#E5A84C" fill-opacity="0.38" stroke="#FFD233"/>
<path d="M18.0078 6.03125C18.2474 6.09375 18.4661 6.14062 18.6641 6.17188C18.8724 6.19271 19.0495 6.20833 19.1953 6.21875C19.3724 6.22917 19.5339 6.23438 19.6797 6.23438C19.8255 6.23438 20.0078 6.22396 20.2266 6.20312C20.612 6.17188 21.1589 6.09375 21.8672 5.96875C21.7526 6.05208 21.6432 6.13542 21.5391 6.21875C21.4453 6.29167 21.362 6.36458 21.2891 6.4375L21.0547 6.67188C20.9193 6.85938 20.7839 7.17708 20.6484 7.625C20.5339 8.01042 20.4089 8.55208 20.2734 9.25C20.1484 9.94792 20.0339 10.875 19.9297 12.0312C20.4401 11.5312 20.9193 11.1562 21.3672 10.9062C21.8255 10.6458 22.2266 10.4583 22.5703 10.3438C22.9766 10.2188 23.3464 10.151 23.6797 10.1406C24.1068 10.1719 24.4766 10.2604 24.7891 10.4062C25.112 10.5417 25.3828 10.7083 25.6016 10.9062C25.8307 11.0938 26.013 11.2917 26.1484 11.5C26.2943 11.6979 26.4036 11.875 26.4766 12.0312C26.5182 12.1354 26.5495 12.3281 26.5703 12.6094C26.6016 12.8802 26.6068 13.1927 26.5859 13.5469C26.5651 13.901 26.5078 14.276 26.4141 14.6719C26.3307 15.0573 26.1901 15.4167 25.9922 15.75C25.8047 16.0729 25.5547 16.3438 25.2422 16.5625C24.9401 16.7812 24.5599 16.901 24.1016 16.9219C23.5703 16.9219 23.0547 16.8594 22.5547 16.7344C22.1276 16.6302 21.6745 16.4479 21.1953 16.1875C20.7266 15.9167 20.3255 15.5312 19.9922 15.0312C19.9922 15.1562 19.9922 15.2812 19.9922 15.4062C19.9922 15.5208 19.9974 15.6198 20.0078 15.7031C20.0182 15.8177 20.0286 15.9167 20.0391 16C20.0495 16.0938 20.0755 16.1927 20.1172 16.2969C20.1484 16.3802 20.1953 16.4844 20.2578 16.6094C20.3307 16.724 20.4245 16.8385 20.5391 16.9531C20.4245 16.9427 20.3099 16.9375 20.1953 16.9375C20.0807 16.9271 19.9661 16.9271 19.8516 16.9375C19.7266 16.9479 19.6016 16.9583 19.4766 16.9688C19.3516 16.9792 19.2214 16.9948 19.0859 17.0156C18.9714 17.0365 18.8359 17.0625 18.6797 17.0938C18.5234 17.125 18.362 17.1615 18.1953 17.2031C18.2266 17.1094 18.2526 16.974 18.2734 16.7969C18.2943 16.6094 18.3151 16.4062 18.3359 16.1875C18.3672 15.9583 18.388 15.7188 18.3984 15.4688C18.4193 15.2188 18.4401 14.9688 18.4609 14.7188C18.5026 14.1458 18.5391 13.5208 18.5703 12.8438C18.6016 11.7917 18.6068 10.8125 18.5859 9.90625C18.5755 9.52083 18.5547 9.13021 18.5234 8.73438C18.5026 8.33854 18.4714 7.96875 18.4297 7.625C18.388 7.27083 18.3307 6.95833 18.2578 6.6875C18.1953 6.40625 18.112 6.1875 18.0078 6.03125ZM20.0391 13.6406C20.2057 13.9427 20.3828 14.2031 20.5703 14.4219C20.7578 14.6302 20.9453 14.8073 21.1328 14.9531C21.3203 15.099 21.5026 15.2135 21.6797 15.2969C21.8672 15.3802 22.0443 15.4427 22.2109 15.4844C22.5964 15.5885 22.9766 15.599 23.3516 15.5156C23.7266 15.4115 24.0182 15.2031 24.2266 14.8906C24.4349 14.5781 24.5964 14.224 24.7109 13.8281C24.763 13.6406 24.7943 13.401 24.8047 13.1094C24.8255 12.8177 24.7943 12.5365 24.7109 12.2656C24.638 11.9844 24.5026 11.7396 24.3047 11.5312C24.1068 11.3125 23.8203 11.1823 23.4453 11.1406C23.1849 11.1406 22.8828 11.2135 22.5391 11.3594C22.237 11.4844 21.8776 11.6927 21.4609 11.9844C21.0443 12.2656 20.5703 12.6875 20.0391 13.25V13.6406ZM31.3828 14.4844C31.6745 14.4844 31.9453 14.4531 32.1953 14.3906C32.4036 14.3385 32.6016 14.2552 32.7891 14.1406C32.987 14.0156 33.1172 13.8333 33.1797 13.5938C33.388 13.6354 33.5651 13.6719 33.7109 13.7031C33.8568 13.724 33.9818 13.7448 34.0859 13.7656C34.2005 13.7969 34.2995 13.8177 34.3828 13.8281C34.4661 13.849 34.5651 13.8698 34.6797 13.8906C34.7839 13.9115 34.9089 13.9375 35.0547 13.9688C35.2109 13.9896 35.3932 14.0208 35.6016 14.0625C35.4453 14.0417 35.2839 14.0573 35.1172 14.1094C34.9609 14.1615 34.8099 14.2188 34.6641 14.2812C34.4974 14.3542 34.3411 14.4427 34.1953 14.5469C34.1016 14.6094 33.9922 14.7031 33.8672 14.8281C33.7526 14.9531 33.5859 15.0729 33.3672 15.1875C33.1484 15.3021 32.8568 15.401 32.4922 15.4844C32.138 15.5573 31.6797 15.5833 31.1172 15.5625C30.4401 15.5417 29.8724 15.4219 29.4141 15.2031C28.9557 14.974 28.5859 14.6979 28.3047 14.375C28.0234 14.0417 27.8203 13.6823 27.6953 13.2969C27.5703 12.9115 27.5026 12.5521 27.4922 12.2188C27.4818 11.8854 27.5807 11.5365 27.7891 11.1719C27.9974 10.8073 28.2891 10.474 28.6641 10.1719C29.0495 9.86979 29.513 9.625 30.0547 9.4375C30.5964 9.23958 31.1901 9.14062 31.8359 9.14062C32.2109 9.14062 32.5547 9.1875 32.8672 9.28125C33.1901 9.36458 33.4818 9.47917 33.7422 9.625C34.013 9.77083 34.2474 9.9375 34.4453 10.125C34.6432 10.3021 34.8099 10.4844 34.9453 10.6719C35.0807 10.8698 35.1953 11.0781 35.2891 11.2969C35.3724 11.4844 35.4401 11.6979 35.4922 11.9375C35.5443 12.1771 35.5599 12.4219 35.5391 12.6719C34.7474 12.6927 34.1068 12.7083 33.6172 12.7188C33.138 12.7292 32.763 12.7344 32.4922 12.7344H31.7891H31.2578C31.0703 12.7344 30.8255 12.7396 30.5234 12.75C30.2214 12.7604 29.8516 12.776 29.4141 12.7969C29.4661 13.2135 29.5964 13.5365 29.8047 13.7656C30.0234 13.9844 30.2526 14.151 30.4922 14.2656C30.763 14.3906 31.0599 14.4635 31.3828 14.4844ZM29.9766 11.6719C30.3099 11.6927 30.5859 11.7083 30.8047 11.7188C31.0339 11.7292 31.2214 11.7396 31.3672 11.75C31.5234 11.7604 31.6484 11.7656 31.7422 11.7656H32.1328C32.3932 11.7656 32.8776 11.75 33.5859 11.7188C33.5547 11.2604 33.4557 10.9115 33.2891 10.6719C33.1328 10.4323 32.9661 10.2552 32.7891 10.1406C32.5807 10.0156 32.3516 9.94271 32.1016 9.92188C31.4245 9.93229 30.9193 10.0729 30.5859 10.3438C30.263 10.6146 30.0599 11.0573 29.9766 11.6719ZM40.2266 14.4844C40.5182 14.4844 40.7891 14.4531 41.0391 14.3906C41.2474 14.3385 41.4453 14.2552 41.6328 14.1406C41.8307 14.0156 41.9609 13.8333 42.0234 13.5938C42.2318 13.6354 42.4089 13.6719 42.5547 13.7031C42.7005 13.724 42.8255 13.7448 42.9297 13.7656C43.0443 13.7969 43.1432 13.8177 43.2266 13.8281C43.3099 13.849 43.4089 13.8698 43.5234 13.8906C43.6276 13.9115 43.7526 13.9375 43.8984 13.9688C44.0547 13.9896 44.237 14.0208 44.4453 14.0625C44.2891 14.0417 44.1276 14.0573 43.9609 14.1094C43.8047 14.1615 43.6536 14.2188 43.5078 14.2812C43.3411 14.3542 43.1849 14.4427 43.0391 14.5469C42.9453 14.6094 42.8359 14.7031 42.7109 14.8281C42.5964 14.9531 42.4297 15.0729 42.2109 15.1875C41.9922 15.3021 41.7005 15.401 41.3359 15.4844C40.9818 15.5573 40.5234 15.5833 39.9609 15.5625C39.2839 15.5417 38.7161 15.4219 38.2578 15.2031C37.7995 14.974 37.4297 14.6979 37.1484 14.375C36.8672 14.0417 36.6641 13.6823 36.5391 13.2969C36.4141 12.9115 36.3464 12.5521 36.3359 12.2188C36.3255 11.8854 36.4245 11.5365 36.6328 11.1719C36.8411 10.8073 37.1328 10.474 37.5078 10.1719C37.8932 9.86979 38.3568 9.625 38.8984 9.4375C39.4401 9.23958 40.0339 9.14062 40.6797 9.14062C41.0547 9.14062 41.3984 9.1875 41.7109 9.28125C42.0339 9.36458 42.3255 9.47917 42.5859 9.625C42.8568 9.77083 43.0911 9.9375 43.2891 10.125C43.487 10.3021 43.6536 10.4844 43.7891 10.6719C43.9245 10.8698 44.0391 11.0781 44.1328 11.2969C44.2161 11.4844 44.2839 11.6979 44.3359 11.9375C44.388 12.1771 44.4036 12.4219 44.3828 12.6719C43.5911 12.6927 42.9505 12.7083 42.4609 12.7188C41.9818 12.7292 41.6068 12.7344 41.3359 12.7344H40.6328H40.1016C39.9141 12.7344 39.6693 12.7396 39.3672 12.75C39.0651 12.7604 38.6953 12.776 38.2578 12.7969C38.3099 13.2135 38.4401 13.5365 38.6484 13.7656C38.8672 13.9844 39.0964 14.151 39.3359 14.2656C39.6068 14.3906 39.9036 14.4635 40.2266 14.4844ZM38.8203 11.6719C39.1536 11.6927 39.4297 11.7083 39.6484 11.7188C39.8776 11.7292 40.0651 11.7396 40.2109 11.75C40.3672 11.7604 40.4922 11.7656 40.5859 11.7656H40.9766C41.237 11.7656 41.7214 11.75 42.4297 11.7188C42.3984 11.2604 42.2995 10.9115 42.1328 10.6719C41.9766 10.4323 41.8099 10.2552 41.6328 10.1406C41.4245 10.0156 41.1953 9.94271 40.9453 9.92188C40.2682 9.93229 39.763 10.0729 39.4297 10.3438C39.1068 10.6146 38.9036 11.0573 38.8203 11.6719ZM51.8984 8.07812C51.8047 8.30729 51.7214 8.51562 51.6484 8.70312C51.5859 8.89062 51.5286 9.05729 51.4766 9.20312C51.4245 9.36979 51.3776 9.51562 51.3359 9.64062C51.2943 9.78646 51.2474 9.95312 51.1953 10.1406C51.1432 10.3073 51.0755 10.5156 50.9922 10.7656C50.9193 11.0052 50.8307 11.2917 50.7266 11.625C50.6432 11.125 50.4922 10.7292 50.2734 10.4375C50.0547 10.1354 49.8307 9.90104 49.6016 9.73438C49.3307 9.54688 49.0391 9.41146 48.7266 9.32812C48.1641 9.23438 47.7578 9.24479 47.5078 9.35938C47.2578 9.47396 47.0911 9.61979 47.0078 9.79688C46.9661 9.86979 46.9193 9.96354 46.8672 10.0781C46.8255 10.1823 46.7891 10.2917 46.7578 10.4062C46.737 10.5208 46.7318 10.6354 46.7422 10.75C46.7526 10.8646 46.7995 10.9583 46.8828 11.0312C46.9349 11.0833 47.0703 11.1562 47.2891 11.25C47.5078 11.3333 47.7682 11.4323 48.0703 11.5469C48.3828 11.651 48.7109 11.7656 49.0547 11.8906C49.4089 12.0156 49.7422 12.1406 50.0547 12.2656C50.3672 12.3906 50.638 12.5156 50.8672 12.6406C51.0964 12.7656 51.2474 12.8802 51.3203 12.9844C51.3828 13.0885 51.4505 13.2292 51.5234 13.4062C51.6068 13.5729 51.6641 13.7604 51.6953 13.9688C51.737 14.1667 51.7474 14.375 51.7266 14.5938C51.7161 14.8021 51.6589 15.0104 51.5547 15.2188C51.4505 15.4271 51.2839 15.6198 51.0547 15.7969C50.8359 15.974 50.5391 16.1198 50.1641 16.2344C49.7266 16.3698 49.3047 16.4062 48.8984 16.3438C48.4922 16.2812 48.1172 16.1875 47.7734 16.0625C47.4401 15.9375 47.1484 15.8177 46.8984 15.7031C46.6484 15.5781 46.4714 15.526 46.3672 15.5469C46.2526 15.5677 46.1224 15.625 45.9766 15.7188C45.8307 15.8125 45.6901 15.9115 45.5547 16.0156C45.4297 16.1094 45.3203 16.1979 45.2266 16.2812C45.1328 16.3542 45.0859 16.3802 45.0859 16.3594C45.0859 16.3385 45.1016 16.276 45.1328 16.1719C45.1745 16.0677 45.2161 15.9427 45.2578 15.7969C45.3099 15.6406 45.3568 15.474 45.3984 15.2969C45.4505 15.1094 45.487 14.9323 45.5078 14.7656C45.5286 14.6302 45.5547 14.4635 45.5859 14.2656C45.6068 14.0885 45.6328 13.875 45.6641 13.625C45.7057 13.3646 45.7526 13.0521 45.8047 12.6875C45.8568 12.9583 45.9297 13.1927 46.0234 13.3906C46.1276 13.5885 46.2266 13.7604 46.3203 13.9062C46.4349 14.0729 46.5443 14.2135 46.6484 14.3281C46.8047 14.474 46.987 14.6094 47.1953 14.7344C47.4141 14.8594 47.6328 14.9688 47.8516 15.0625C48.0703 15.1458 48.2786 15.1979 48.4766 15.2188C48.6745 15.2396 48.8411 15.2188 48.9766 15.1562C49.112 15.0938 49.2266 14.9792 49.3203 14.8125C49.4245 14.6458 49.4974 14.4635 49.5391 14.2656C49.5807 14.0677 49.5964 13.8802 49.5859 13.7031C49.5755 13.5156 49.5286 13.3646 49.4453 13.25C49.3828 13.1771 49.237 13.0833 49.0078 12.9688C48.7891 12.8542 48.5234 12.7292 48.2109 12.5938C47.9089 12.4583 47.5859 12.3177 47.2422 12.1719C46.9089 12.026 46.5911 11.8802 46.2891 11.7344C45.9974 11.5781 45.7526 11.4323 45.5547 11.2969C45.3672 11.151 45.263 11.0208 45.2422 10.9062C45.2214 10.7396 45.2057 10.5573 45.1953 10.3594C45.1849 10.151 45.1953 9.94792 45.2266 9.75C45.2682 9.54167 45.3411 9.34375 45.4453 9.15625C45.5599 8.96875 45.7266 8.8125 45.9453 8.6875C46.0911 8.60417 46.2839 8.54167 46.5234 8.5C46.763 8.45833 47.0286 8.4375 47.3203 8.4375C47.612 8.42708 47.9141 8.4375 48.2266 8.46875C48.5391 8.48958 48.8359 8.52083 49.1172 8.5625C49.4089 8.59375 49.6693 8.63542 49.8984 8.6875C50.138 8.73958 50.3203 8.78646 50.4453 8.82812C50.5911 8.88021 50.7474 8.88542 50.9141 8.84375C51.0599 8.8125 51.2161 8.74479 51.3828 8.64062C51.5495 8.53646 51.7214 8.34896 51.8984 8.07812ZM16.1641 30.4531C16.0391 30.4323 15.8828 30.4167 15.6953 30.4062C15.5182 30.3958 15.3464 30.3906 15.1797 30.3906C14.9922 30.3906 14.7943 30.3958 14.5859 30.4062C14.3672 30.4167 14.1484 30.4271 13.9297 30.4375C13.7422 30.4479 13.5286 30.4635 13.2891 30.4844C13.0599 30.4948 12.8359 30.5104 12.6172 30.5312C12.7005 30.4896 12.7734 30.4323 12.8359 30.3594C12.9089 30.2865 12.9714 30.2135 13.0234 30.1406C13.0755 30.0573 13.1224 29.9688 13.1641 29.875C13.2161 29.7188 13.2109 29.5312 13.1484 29.3125C13.0859 29.0833 12.9714 28.875 12.8047 28.6875C12.6484 28.5 12.4453 28.3542 12.1953 28.25C11.9557 28.1354 11.6901 28.1094 11.3984 28.1719C11.0859 28.2448 10.8047 28.3542 10.5547 28.5C10.3151 28.6458 10.112 28.849 9.94531 29.1094C9.78906 29.3594 9.67448 29.6719 9.60156 30.0469C9.53906 30.4115 9.52344 30.849 9.55469 31.3594C9.59635 31.9948 9.70052 32.5 9.86719 32.875C10.0339 33.25 10.237 33.5312 10.4766 33.7188C10.7161 33.9062 10.9766 34.0208 11.2578 34.0625C11.5495 34.0938 11.8359 34.0938 12.1172 34.0625C12.3151 34.0208 12.4974 33.9323 12.6641 33.7969C12.7995 33.6823 12.9245 33.5156 13.0391 33.2969C13.1536 33.0781 13.2057 32.776 13.1953 32.3906L15.1016 32.3125C14.8828 32.9271 14.6172 33.4167 14.3047 33.7812C13.9922 34.1354 13.6901 34.4115 13.3984 34.6094C13.0547 34.8385 12.7109 34.9948 12.3672 35.0781C11.9401 35.151 11.5599 35.1823 11.2266 35.1719C10.8932 35.151 10.5911 35.099 10.3203 35.0156C10.0495 34.9323 9.79948 34.8281 9.57031 34.7031C9.34115 34.5781 9.1224 34.4427 8.91406 34.2969C8.77865 34.2031 8.6276 34.0469 8.46094 33.8281C8.29427 33.6094 8.13802 33.349 7.99219 33.0469C7.84635 32.7344 7.72656 32.3906 7.63281 32.0156C7.53906 31.6406 7.5026 31.2552 7.52344 30.8594C7.54427 30.4531 7.63802 30.0469 7.80469 29.6406C7.97135 29.2344 8.23698 28.8438 8.60156 28.4688C9.15365 27.9062 9.74219 27.5417 10.3672 27.375C11.0026 27.1979 11.6016 27.151 12.1641 27.2344C12.7266 27.3073 13.2266 27.4688 13.6641 27.7188C14.1016 27.9688 14.4089 28.2396 14.5859 28.5312C14.763 28.8229 14.8932 29.0469 14.9766 29.2031C15.0703 29.349 15.138 29.4635 15.1797 29.5469C15.2318 29.6198 15.2734 29.6771 15.3047 29.7188C15.3464 29.75 15.4036 29.7969 15.4766 29.8594C15.5286 29.9115 15.5911 29.9688 15.6641 30.0312C15.7266 30.0833 15.7995 30.1458 15.8828 30.2188C15.9661 30.2917 16.0599 30.3698 16.1641 30.4531ZM17.1016 29.6719C17.1536 29.6094 17.1849 29.4948 17.1953 29.3281C17.2161 29.151 17.2578 28.9531 17.3203 28.7344C17.3932 28.5156 17.513 28.2865 17.6797 28.0469C17.8464 27.8073 18.1172 27.5833 18.4922 27.375C18.8568 27.1667 19.2109 27.0417 19.5547 27C19.8984 26.9583 20.2266 26.974 20.5391 27.0469C20.8516 27.1198 21.1432 27.2344 21.4141 27.3906C21.6953 27.5469 21.9505 27.7188 22.1797 27.9062C22.3359 28.0312 22.4609 28.2135 22.5547 28.4531C22.6484 28.6823 22.7214 28.9427 22.7734 29.2344C22.8255 29.526 22.862 29.8333 22.8828 30.1562C22.9141 30.4688 22.9349 30.776 22.9453 31.0781C22.9557 31.3698 22.9609 31.6406 22.9609 31.8906C22.9714 32.1302 22.9922 32.3281 23.0234 32.4844C23.0651 32.7135 23.138 32.9115 23.2422 33.0781C23.3464 33.2344 23.4609 33.3698 23.5859 33.4844C23.7109 33.5885 23.8359 33.6719 23.9609 33.7344C24.0859 33.7969 24.1953 33.8438 24.2891 33.875C24.3516 33.9062 24.4089 33.9271 24.4609 33.9375C24.5651 33.9792 24.638 33.9792 24.6797 33.9375C24.6172 34.0833 24.5599 34.2083 24.5078 34.3125C24.4557 34.4167 24.4141 34.5052 24.3828 34.5781C24.3411 34.6615 24.3047 34.7292 24.2734 34.7812C24.2422 34.8438 24.2057 34.901 24.1641 34.9531C24.1328 35.0052 24.0911 35.0625 24.0391 35.125C23.987 35.1875 23.9349 35.2552 23.8828 35.3281C23.7474 35.276 23.6172 35.2135 23.4922 35.1406C23.3776 35.0677 23.2734 35 23.1797 34.9375C23.0651 34.8646 22.9609 34.7917 22.8672 34.7188C22.7734 34.6458 22.6849 34.5625 22.6016 34.4688C22.5286 34.3854 22.4505 34.2969 22.3672 34.2031C22.2943 34.1094 22.2318 34.0052 22.1797 33.8906C22.1172 34.026 21.9661 34.2188 21.7266 34.4688C21.4974 34.7188 21.1953 34.9479 20.8203 35.1562C20.4453 35.3542 20.0078 35.4948 19.5078 35.5781C19.0182 35.6615 18.4766 35.6042 17.8828 35.4062C17.6224 35.3229 17.3776 35.2031 17.1484 35.0469C16.9193 34.8802 16.7214 34.6823 16.5547 34.4531C16.3984 34.224 16.2839 33.9635 16.2109 33.6719C16.1484 33.3698 16.1536 33.0365 16.2266 32.6719C16.2995 32.3073 16.4297 32 16.6172 31.75C16.8047 31.5 17.0286 31.2969 17.2891 31.1406C17.5495 30.9844 17.8411 30.8646 18.1641 30.7812C18.487 30.6979 18.8203 30.6406 19.1641 30.6094C19.4349 30.599 19.7057 30.6146 19.9766 30.6562C20.2057 30.6979 20.4453 30.776 20.6953 30.8906C20.9453 30.9948 21.1589 31.1562 21.3359 31.375C21.3255 30.8229 21.3047 30.3854 21.2734 30.0625C21.2526 29.7292 21.2318 29.474 21.2109 29.2969C21.1693 29.0885 21.1328 28.9427 21.1016 28.8594C21.0495 28.7865 20.9922 28.7031 20.9297 28.6094C20.8776 28.5156 20.8099 28.4323 20.7266 28.3594C20.6432 28.276 20.5391 28.2083 20.4141 28.1562C20.2891 28.1042 20.1432 28.0833 19.9766 28.0938C19.7995 28.1042 19.6589 28.151 19.5547 28.2344C19.4505 28.3177 19.3672 28.4167 19.3047 28.5312C19.2526 28.6354 19.2214 28.75 19.2109 28.875C19.2005 29 19.2057 29.1094 19.2266 29.2031C19.2474 29.2656 19.2786 29.3333 19.3203 29.4062C19.362 29.4688 19.4193 29.5365 19.4922 29.6094C19.5651 29.6823 19.6641 29.7448 19.7891 29.7969C19.5495 29.8281 19.3359 29.8542 19.1484 29.875C18.9609 29.8854 18.7995 29.901 18.6641 29.9219C18.5078 29.9427 18.3724 29.9583 18.2578 29.9688C18.1432 29.9792 18.0078 30 17.8516 30.0312C17.7161 30.0521 17.5495 30.0781 17.3516 30.1094C17.1536 30.1406 16.9245 30.1823 16.6641 30.2344C16.7266 30.1615 16.7839 30.0938 16.8359 30.0312C16.888 29.9583 16.9349 29.8958 16.9766 29.8438C17.0182 29.7812 17.0599 29.724 17.1016 29.6719ZM19.4453 31.5312C19.2578 31.5417 19.0703 31.5885 18.8828 31.6719C18.6953 31.7448 18.5286 31.8542 18.3828 32C18.237 32.1354 18.112 32.2969 18.0078 32.4844C17.9141 32.6615 17.8672 32.8594 17.8672 33.0781C17.8672 33.2969 17.9193 33.4896 18.0234 33.6562C18.138 33.8125 18.2839 33.9427 18.4609 34.0469C18.6484 34.151 18.8464 34.2135 19.0547 34.2344C19.2734 34.2552 19.487 34.2344 19.6953 34.1719C19.8932 34.099 20.0807 33.9844 20.2578 33.8281C20.4349 33.6615 20.5859 33.4844 20.7109 33.2969C20.8359 33.099 20.9245 32.9062 20.9766 32.7188C21.0286 32.5208 21.0339 32.3594 20.9922 32.2344C20.9089 31.9635 20.7214 31.776 20.4297 31.6719C20.138 31.5573 19.8099 31.5104 19.4453 31.5312ZM25.0078 34.2812C25.0807 33.9375 25.1328 33.6354 25.1641 33.375C25.2057 33.1042 25.237 32.8802 25.2578 32.7031C25.2786 32.4948 25.2891 32.3177 25.2891 32.1719C25.2786 31.9948 25.2682 31.7865 25.2578 31.5469C25.2578 31.2969 25.2474 31.0521 25.2266 30.8125C25.2161 30.5625 25.2005 30.3438 25.1797 30.1562C25.1589 29.9583 25.1328 29.8177 25.1016 29.7344C25.0599 29.651 25.0026 29.5625 24.9297 29.4688C24.7839 29.2917 24.5703 29.1198 24.2891 28.9531C24.5286 28.901 24.7318 28.8594 24.8984 28.8281C25.0755 28.7865 25.2214 28.75 25.3359 28.7188C25.4609 28.6771 25.5703 28.6406 25.6641 28.6094C25.7474 28.5781 25.8464 28.5469 25.9609 28.5156C26.0547 28.4948 26.1693 28.4688 26.3047 28.4375C26.4401 28.4062 26.5964 28.3698 26.7734 28.3281L26.7266 29.75C27.0599 29.3542 27.3984 29.0573 27.7422 28.8594C28.0859 28.6615 28.4089 28.5208 28.7109 28.4375C29.0547 28.3333 29.3932 28.2812 29.7266 28.2812C30.1432 28.3021 30.5286 28.3698 30.8828 28.4844C31.2474 28.599 31.5599 28.7344 31.8203 28.8906C32.0911 29.0365 32.3099 29.1927 32.4766 29.3594C32.6432 29.526 32.7422 29.6719 32.7734 29.7969C32.8984 30.2031 32.9297 30.5781 32.8672 30.9219C32.8047 31.2552 32.7214 31.5833 32.6172 31.9062C32.5234 32.2188 32.4401 32.5312 32.3672 32.8438C32.3047 33.1562 32.3307 33.4948 32.4453 33.8594C32.487 33.9531 32.5286 34.0469 32.5703 34.1406C32.612 34.224 32.6641 34.3073 32.7266 34.3906C32.7891 34.474 32.862 34.5417 32.9453 34.5938C32.8307 34.5833 32.7161 34.5781 32.6016 34.5781C32.487 34.5677 32.3828 34.5573 32.2891 34.5469C32.1745 34.5365 32.0703 34.526 31.9766 34.5156C31.8724 34.5052 31.7318 34.5 31.5547 34.5C31.2526 34.5 30.7839 34.5156 30.1484 34.5469C30.2422 34.3281 30.3151 34.1458 30.3672 34C30.4297 33.8438 30.4818 33.7188 30.5234 33.625C30.5651 33.5104 30.5964 33.4219 30.6172 33.3594C30.7422 33.0573 30.8151 32.7135 30.8359 32.3281C30.8672 31.9427 30.8411 31.5521 30.7578 31.1562C30.7266 31.0208 30.6745 30.8594 30.6016 30.6719C30.5286 30.4844 30.4297 30.3021 30.3047 30.125C30.1901 29.9479 30.0495 29.7969 29.8828 29.6719C29.7266 29.5469 29.5443 29.474 29.3359 29.4531C29.1276 29.4323 28.8932 29.4844 28.6328 29.6094C28.3828 29.7344 28.112 29.9635 27.8203 30.2969C27.6016 30.5781 27.4297 30.9219 27.3047 31.3281C27.1901 31.6719 27.112 32.1042 27.0703 32.625C27.0286 33.1354 27.0911 33.7344 27.2578 34.4219C27.112 34.401 26.9766 34.3906 26.8516 34.3906C26.7266 34.3802 26.6224 34.3698 26.5391 34.3594C26.4349 34.349 26.3411 34.3385 26.2578 34.3281C26.1641 34.3281 26.0599 34.3229 25.9453 34.3125C25.8411 34.3125 25.7109 34.3125 25.5547 34.3125C25.3984 34.3021 25.2161 34.2917 25.0078 34.2812ZM41.4141 24.0312C41.612 24.0417 41.8255 24.0469 42.0547 24.0469C42.2526 24.0469 42.4766 24.0521 42.7266 24.0625C42.987 24.0625 43.2578 24.0521 43.5391 24.0312C43.2891 24.1458 43.0703 24.3125 42.8828 24.5312C42.6953 24.75 42.5443 24.9688 42.4297 25.1875C42.2839 25.4479 42.1641 25.7188 42.0703 26C42.0182 26.1667 41.9766 26.4635 41.9453 26.8906C41.9141 27.3073 41.888 27.7969 41.8672 28.3594C41.8568 28.9219 41.8516 29.5156 41.8516 30.1406C41.8516 30.7656 41.8568 31.3646 41.8672 31.9375C41.8776 32.5 41.8932 33 41.9141 33.4375C41.9349 33.875 41.9609 34.1823 41.9922 34.3594C42.0339 34.5677 42.0859 34.7656 42.1484 34.9531C42.2005 35.1198 42.2682 35.2917 42.3516 35.4688C42.4349 35.6354 42.5391 35.7708 42.6641 35.875L41.0703 36.5938C40.987 36.4792 40.9193 36.3594 40.8672 36.2344C40.8151 36.1198 40.7734 36.0156 40.7422 35.9219C40.7005 35.8073 40.6745 35.7031 40.6641 35.6094C40.6432 35.4844 40.6224 35.349 40.6016 35.2031C40.5807 35.0469 40.5547 34.901 40.5234 34.7656C40.5026 34.6198 40.487 34.5 40.4766 34.4062C40.4661 34.3125 40.4661 34.2552 40.4766 34.2344C40.487 34.2135 40.4245 34.3073 40.2891 34.5156C40.1536 34.7135 39.9505 34.9479 39.6797 35.2188C39.4193 35.4792 39.0964 35.7344 38.7109 35.9844C38.3255 36.224 37.8932 36.375 37.4141 36.4375C36.9245 36.5 36.4714 36.4062 36.0547 36.1562C35.6484 35.9062 35.2995 35.5573 35.0078 35.1094C34.7161 34.651 34.4922 34.125 34.3359 33.5312C34.1901 32.9271 34.1328 32.3125 34.1641 31.6875C34.1849 31.2708 34.2786 30.901 34.4453 30.5781C34.612 30.2448 34.8203 29.9583 35.0703 29.7188C35.3307 29.4688 35.612 29.2604 35.9141 29.0938C36.2266 28.9167 36.5286 28.7708 36.8203 28.6562C37.1224 28.5417 37.4036 28.4583 37.6641 28.4062C37.9245 28.3542 38.1328 28.3177 38.2891 28.2969C38.4766 28.2865 38.6901 28.3177 38.9297 28.3906C39.138 28.4531 39.3776 28.5573 39.6484 28.7031C39.9297 28.849 40.2422 29.0677 40.5859 29.3594C40.5234 28.3177 40.4661 27.4844 40.4141 26.8594C40.362 26.224 40.3099 25.7396 40.2578 25.4062C40.2057 25.0104 40.1589 24.7396 40.1172 24.5938C40.0651 24.4896 39.9974 24.3854 39.9141 24.2812C39.8411 24.1979 39.7474 24.1146 39.6328 24.0312C39.5286 23.9375 39.4036 23.8646 39.2578 23.8125C39.5286 23.8646 39.7891 23.901 40.0391 23.9219C40.2891 23.9427 40.5182 23.9635 40.7266 23.9844C40.9661 24.0052 41.1953 24.0208 41.4141 24.0312ZM37.4922 29.8594C37.2943 29.9323 37.1328 30.0573 37.0078 30.2344C36.8932 30.4115 36.7995 30.625 36.7266 30.875C36.6536 31.1146 36.6016 31.375 36.5703 31.6562C36.5495 31.9271 36.5339 32.1927 36.5234 32.4531C36.5234 32.7031 36.5234 32.9323 36.5234 33.1406C36.5234 33.349 36.5234 33.5052 36.5234 33.6094C36.5234 33.6719 36.5339 33.7865 36.5547 33.9531C36.5859 34.1094 36.6484 34.276 36.7422 34.4531C36.8359 34.6198 36.9661 34.7708 37.1328 34.9062C37.3099 35.0417 37.5443 35.1094 37.8359 35.1094C38.0755 35.0885 38.3307 35.0052 38.6016 34.8594C38.8411 34.7344 39.112 34.5365 39.4141 34.2656C39.7266 33.9844 40.0599 33.5833 40.4141 33.0625C40.3932 32.7292 40.3776 32.4531 40.3672 32.2344C40.3672 32.0156 40.362 31.8385 40.3516 31.7031C40.3411 31.5469 40.3359 31.4219 40.3359 31.3281V31.0938C40.3359 31.0312 40.3359 30.9635 40.3359 30.8906C40.3359 30.8177 40.3411 30.75 40.3516 30.6875C40.0599 30.4792 39.7995 30.3021 39.5703 30.1562C39.3516 30 39.1328 29.8854 38.9141 29.8125C38.7057 29.7292 38.487 29.6927 38.2578 29.7031C38.0391 29.7031 37.7839 29.7552 37.4922 29.8594ZM43.5703 36.4375C43.6745 36.2812 43.7578 36.1354 43.8203 36C43.8828 35.8646 43.9349 35.75 43.9766 35.6562C44.0182 35.5417 44.0495 35.4375 44.0703 35.3438C44.0807 35.2812 44.0859 35.099 44.0859 34.7969C44.0859 34.4948 44.0755 34.1146 44.0547 33.6562C44.0443 33.1979 44.0286 32.6823 44.0078 32.1094C43.9974 31.5365 43.9766 30.9531 43.9453 30.3594C43.9245 29.7656 43.8984 29.1875 43.8672 28.625C43.8464 28.0625 43.8255 27.5573 43.8047 27.1094C43.7839 26.651 43.763 26.276 43.7422 25.9844C43.7214 25.6927 43.7057 25.526 43.6953 25.4844C43.6745 25.4219 43.638 25.3594 43.5859 25.2969C43.4818 25.1719 43.3047 25.0521 43.0547 24.9375C43.5859 24.8021 43.9922 24.6927 44.2734 24.6094C44.4401 24.5677 44.5859 24.526 44.7109 24.4844C44.8255 24.4427 44.9401 24.401 45.0547 24.3594C45.1484 24.3177 45.2526 24.2708 45.3672 24.2188C45.4818 24.1562 45.5859 24.0885 45.6797 24.0156C45.6276 24.3177 45.5859 24.6094 45.5547 24.8906C45.5234 25.1719 45.4974 25.4323 45.4766 25.6719C45.4557 25.9427 45.4453 26.2031 45.4453 26.4531C45.3932 26.9635 45.362 27.5208 45.3516 28.125C45.3516 28.7188 45.3568 29.3229 45.3672 29.9375C45.3776 30.5521 45.3984 31.151 45.4297 31.7344C45.4609 32.3177 45.4922 32.849 45.5234 33.3281C45.5651 33.7969 45.6016 34.1979 45.6328 34.5312C45.6745 34.8542 45.7057 35.0625 45.7266 35.1562C45.7682 35.3125 45.8099 35.4635 45.8516 35.6094C45.8932 35.7344 45.9401 35.8646 45.9922 36C46.0443 36.1458 46.1068 36.2604 46.1797 36.3438H44.6641C44.5286 36.3438 44.3984 36.349 44.2734 36.3594C44.1589 36.3698 44.0391 36.3802 43.9141 36.3906C43.7891 36.401 43.6745 36.4167 43.5703 36.4375ZM50.8047 33.4844C51.0964 33.4844 51.3672 33.4531 51.6172 33.3906C51.8255 33.3385 52.0234 33.2552 52.2109 33.1406C52.4089 33.0156 52.5391 32.8333 52.6016 32.5938C52.8099 32.6354 52.987 32.6719 53.1328 32.7031C53.2786 32.724 53.4036 32.7448 53.5078 32.7656C53.6224 32.7969 53.7214 32.8177 53.8047 32.8281C53.888 32.849 53.987 32.8698 54.1016 32.8906C54.2057 32.9115 54.3307 32.9375 54.4766 32.9688C54.6328 32.9896 54.8151 33.0208 55.0234 33.0625C54.8672 33.0417 54.7057 33.0573 54.5391 33.1094C54.3828 33.1615 54.2318 33.2188 54.0859 33.2812C53.9193 33.3542 53.763 33.4427 53.6172 33.5469C53.5234 33.6094 53.4141 33.7031 53.2891 33.8281C53.1745 33.9531 53.0078 34.0729 52.7891 34.1875C52.5703 34.3021 52.2786 34.401 51.9141 34.4844C51.5599 34.5573 51.1016 34.5833 50.5391 34.5625C49.862 34.5417 49.2943 34.4219 48.8359 34.2031C48.3776 33.974 48.0078 33.6979 47.7266 33.375C47.4453 33.0417 47.2422 32.6823 47.1172 32.2969C46.9922 31.9115 46.9245 31.5521 46.9141 31.2188C46.9036 30.8854 47.0026 30.5365 47.2109 30.1719C47.4193 29.8073 47.7109 29.474 48.0859 29.1719C48.4714 28.8698 48.9349 28.625 49.4766 28.4375C50.0182 28.2396 50.612 28.1406 51.2578 28.1406C51.6328 28.1406 51.9766 28.1875 52.2891 28.2812C52.612 28.3646 52.9036 28.4792 53.1641 28.625C53.4349 28.7708 53.6693 28.9375 53.8672 29.125C54.0651 29.3021 54.2318 29.4844 54.3672 29.6719C54.5026 29.8698 54.6172 30.0781 54.7109 30.2969C54.7943 30.4844 54.862 30.6979 54.9141 30.9375C54.9661 31.1771 54.9818 31.4219 54.9609 31.6719C54.1693 31.6927 53.5286 31.7083 53.0391 31.7188C52.5599 31.7292 52.1849 31.7344 51.9141 31.7344H51.2109H50.6797C50.4922 31.7344 50.2474 31.7396 49.9453 31.75C49.6432 31.7604 49.2734 31.776 48.8359 31.7969C48.888 32.2135 49.0182 32.5365 49.2266 32.7656C49.4453 32.9844 49.6745 33.151 49.9141 33.2656C50.1849 33.3906 50.4818 33.4635 50.8047 33.4844ZM49.3984 30.6719C49.7318 30.6927 50.0078 30.7083 50.2266 30.7188C50.4557 30.7292 50.6432 30.7396 50.7891 30.75C50.9453 30.7604 51.0703 30.7656 51.1641 30.7656H51.5547C51.8151 30.7656 52.2995 30.75 53.0078 30.7188C52.9766 30.2604 52.8776 29.9115 52.7109 29.6719C52.5547 29.4323 52.388 29.2552 52.2109 29.1406C52.0026 29.0156 51.7734 28.9427 51.5234 28.9219C50.8464 28.9323 50.3411 29.0729 50.0078 29.3438C49.6849 29.6146 49.4818 30.0573 49.3984 30.6719ZM62.4766 27.0781C62.3828 27.3073 62.2995 27.5156 62.2266 27.7031C62.1641 27.8906 62.1068 28.0573 62.0547 28.2031C62.0026 28.3698 61.9557 28.5156 61.9141 28.6406C61.8724 28.7865 61.8255 28.9531 61.7734 29.1406C61.7214 29.3073 61.6536 29.5156 61.5703 29.7656C61.4974 30.0052 61.4089 30.2917 61.3047 30.625C61.2214 30.125 61.0703 29.7292 60.8516 29.4375C60.6328 29.1354 60.4089 28.901 60.1797 28.7344C59.9089 28.5469 59.6172 28.4115 59.3047 28.3281C58.7422 28.2344 58.3359 28.2448 58.0859 28.3594C57.8359 28.474 57.6693 28.6198 57.5859 28.7969C57.5443 28.8698 57.4974 28.9635 57.4453 29.0781C57.4036 29.1823 57.3672 29.2917 57.3359 29.4062C57.3151 29.5208 57.3099 29.6354 57.3203 29.75C57.3307 29.8646 57.3776 29.9583 57.4609 30.0312C57.513 30.0833 57.6484 30.1562 57.8672 30.25C58.0859 30.3333 58.3464 30.4323 58.6484 30.5469C58.9609 30.651 59.2891 30.7656 59.6328 30.8906C59.987 31.0156 60.3203 31.1406 60.6328 31.2656C60.9453 31.3906 61.2161 31.5156 61.4453 31.6406C61.6745 31.7656 61.8255 31.8802 61.8984 31.9844C61.9609 32.0885 62.0286 32.2292 62.1016 32.4062C62.1849 32.5729 62.2422 32.7604 62.2734 32.9688C62.3151 33.1667 62.3255 33.375 62.3047 33.5938C62.2943 33.8021 62.237 34.0104 62.1328 34.2188C62.0286 34.4271 61.862 34.6198 61.6328 34.7969C61.4141 34.974 61.1172 35.1198 60.7422 35.2344C60.3047 35.3698 59.8828 35.4062 59.4766 35.3438C59.0703 35.2812 58.6953 35.1875 58.3516 35.0625C58.0182 34.9375 57.7266 34.8177 57.4766 34.7031C57.2266 34.5781 57.0495 34.526 56.9453 34.5469C56.8307 34.5677 56.7005 34.625 56.5547 34.7188C56.4089 34.8125 56.2682 34.9115 56.1328 35.0156C56.0078 35.1094 55.8984 35.1979 55.8047 35.2812C55.7109 35.3542 55.6641 35.3802 55.6641 35.3594C55.6641 35.3385 55.6797 35.276 55.7109 35.1719C55.7526 35.0677 55.7943 34.9427 55.8359 34.7969C55.888 34.6406 55.9349 34.474 55.9766 34.2969C56.0286 34.1094 56.0651 33.9323 56.0859 33.7656C56.1068 33.6302 56.1328 33.4635 56.1641 33.2656C56.1849 33.0885 56.2109 32.875 56.2422 32.625C56.2839 32.3646 56.3307 32.0521 56.3828 31.6875C56.4349 31.9583 56.5078 32.1927 56.6016 32.3906C56.7057 32.5885 56.8047 32.7604 56.8984 32.9062C57.013 33.0729 57.1224 33.2135 57.2266 33.3281C57.3828 33.474 57.5651 33.6094 57.7734 33.7344C57.9922 33.8594 58.2109 33.9688 58.4297 34.0625C58.6484 34.1458 58.8568 34.1979 59.0547 34.2188C59.2526 34.2396 59.4193 34.2188 59.5547 34.1562C59.6901 34.0938 59.8047 33.9792 59.8984 33.8125C60.0026 33.6458 60.0755 33.4635 60.1172 33.2656C60.1589 33.0677 60.1745 32.8802 60.1641 32.7031C60.1536 32.5156 60.1068 32.3646 60.0234 32.25C59.9609 32.1771 59.8151 32.0833 59.5859 31.9688C59.3672 31.8542 59.1016 31.7292 58.7891 31.5938C58.487 31.4583 58.1641 31.3177 57.8203 31.1719C57.487 31.026 57.1693 30.8802 56.8672 30.7344C56.5755 30.5781 56.3307 30.4323 56.1328 30.2969C55.9453 30.151 55.8411 30.0208 55.8203 29.9062C55.7995 29.7396 55.7839 29.5573 55.7734 29.3594C55.763 29.151 55.7734 28.9479 55.8047 28.75C55.8464 28.5417 55.9193 28.3438 56.0234 28.1562C56.138 27.9688 56.3047 27.8125 56.5234 27.6875C56.6693 27.6042 56.862 27.5417 57.1016 27.5C57.3411 27.4583 57.6068 27.4375 57.8984 27.4375C58.1901 27.4271 58.4922 27.4375 58.8047 27.4688C59.1172 27.4896 59.4141 27.5208 59.6953 27.5625C59.987 27.5938 60.2474 27.6354 60.4766 27.6875C60.7161 27.7396 60.8984 27.7865 61.0234 27.8281C61.1693 27.8802 61.3255 27.8854 61.4922 27.8438C61.638 27.8125 61.7943 27.7448 61.9609 27.6406C62.1276 27.5365 62.2995 27.349 62.4766 27.0781Z" fill="#270935"/>
</svg>
