<svg width="32" height="32" viewBox="0 0 32 32" fill="none" xmlns="http://www.w3.org/2000/svg">
<path d="M17.3333 2.66663V4.37063L24 6.59463L28.8427 4.98129L29.6867 7.50929L25.644 8.85729L29.772 20.2066C29.026 20.9853 28.1299 21.6048 27.1379 22.0276C26.1458 22.4504 25.0784 22.6678 24 22.6666C22.9216 22.6679 21.8541 22.4505 20.8621 22.0277C19.87 21.6049 18.974 20.9854 18.228 20.2066L22.3533 8.85729L17.3333 7.18263V25.3333H22.6667V28H9.33333V25.3333H14.6667V7.18263L9.64267 8.85729L13.7707 20.2066C13.025 20.9854 12.1292 21.6049 11.1373 22.0278C10.1455 22.4506 9.07821 22.6679 8 22.6666C6.9216 22.6679 5.85414 22.4505 4.86208 22.0277C3.87003 21.6049 2.97396 20.9854 2.228 20.2066L6.35333 8.85729L2.31333 7.51063L3.15733 4.97996L8 6.59329L14.6667 4.37063V2.66663H17.3333ZM24 12.1373L22.1093 17.3333H25.8893L24 12.1373ZM8 12.1373L6.10933 17.3333H9.88933L8 12.1373Z" fill="#270935"/>
</svg>
