<svg width="32" height="32" viewBox="0 0 32 32" fill="none" xmlns="http://www.w3.org/2000/svg">
<path d="M30.6133 9.87205L22.1279 1.38672C22.0029 1.26174 21.8334 1.19153 21.6566 1.19153C21.4798 1.19153 21.3103 1.26174 21.1853 1.38672L1.3866 21.1854C1.26162 21.3104 1.19141 21.4799 1.19141 21.6567C1.19141 21.8335 1.26162 22.003 1.3866 22.1281L9.87193 30.6134C9.99695 30.7384 10.1665 30.8086 10.3433 30.8086C10.52 30.8086 10.6896 30.7384 10.8146 30.6134L15.0546 26.3734L15.0573 26.3707L18.8266 22.6014H18.8279V22.5987L22.5999 18.8294V18.8281L26.3706 15.0574L30.6133 10.8147C30.7382 10.6897 30.8085 10.5202 30.8085 10.3434C30.8085 10.1666 30.7382 9.99707 30.6133 9.87205V9.87205ZM25.8999 13.6427L23.5426 11.2867C23.4811 11.223 23.4075 11.1723 23.3262 11.1373C23.2449 11.1024 23.1574 11.084 23.0689 11.0832C22.9803 11.0825 22.8926 11.0993 22.8106 11.1328C22.7287 11.1664 22.6543 11.2159 22.5917 11.2785C22.5291 11.3411 22.4796 11.4155 22.446 11.4974C22.4125 11.5793 22.3957 11.6671 22.3964 11.7557C22.3972 11.8442 22.4156 11.9317 22.4505 12.013C22.4855 12.0943 22.5363 12.1679 22.5999 12.2294L24.9573 14.5854L22.1279 17.4147L17.8853 13.1721C17.8238 13.1084 17.7502 13.0576 17.6689 13.0227C17.5875 12.9877 17.5001 12.9693 17.4115 12.9686C17.323 12.9678 17.2352 12.9847 17.1533 13.0182C17.0714 13.0517 16.9969 13.1012 16.9343 13.1638C16.8717 13.2264 16.8222 13.3008 16.7887 13.3827C16.7552 13.4647 16.7383 13.5525 16.7391 13.641C16.7399 13.7295 16.7583 13.817 16.7932 13.8983C16.8281 13.9797 16.8789 14.0532 16.9426 14.1147L21.1853 18.3574L18.3573 21.1854L15.9999 18.8281C15.8742 18.7066 15.7058 18.6394 15.531 18.6409C15.3562 18.6425 15.189 18.7126 15.0654 18.8362C14.9418 18.9598 14.8717 19.127 14.8701 19.3018C14.8686 19.4766 14.9358 19.645 15.0573 19.7707L17.4133 22.1281L14.5866 24.9574L10.3426 20.7134C10.2811 20.6497 10.2075 20.5989 10.1262 20.564C10.0449 20.529 9.95738 20.5107 9.86886 20.5099C9.78035 20.5091 9.69256 20.526 9.61063 20.5595C9.5287 20.593 9.45426 20.6425 9.39167 20.7051C9.32907 20.7677 9.27957 20.8422 9.24605 20.9241C9.21253 21.006 9.19566 21.0938 9.19643 21.1823C9.1972 21.2708 9.21559 21.3583 9.25053 21.4397C9.28547 21.521 9.33626 21.5946 9.39993 21.6561L13.6426 25.9001L10.3426 29.1987L2.80126 21.6561L21.6559 2.80139L29.1999 10.3441L25.9013 13.6427H25.8999Z" fill="#270935" stroke="#270935"/>
</svg>
