<svg width="24" height="29" viewBox="0 0 24 29" fill="none" xmlns="http://www.w3.org/2000/svg">
<path d="M11.352 1.85603L9.672 0.849365L9.352 2.78137C8.84267 5.83203 6.75867 8.6667 4.46 10.6587C-0.0400012 14.56 -1.02533 18.8 0.367999 22.3C1.70133 25.6494 5.08533 27.9427 8.52 28.3254L9.31467 28.4134C7.34933 27.212 6.088 24.4054 6.528 22.308C6.96267 20.2467 8.44533 18.316 11.2933 16.5347L12.7293 15.6387L13.2653 17.2454C13.5813 18.1947 14.128 18.9574 14.684 19.732C14.9507 20.1054 15.2213 20.4827 15.4693 20.884C16.3267 22.2774 16.5533 23.8267 16 25.364C15.496 26.7614 14.664 27.86 13.52 28.4694L14.8133 28.3254C18.0373 27.9667 20.404 26.864 21.9413 25.02C23.4653 23.192 24 20.8387 24 18.3334C24 16 23.0413 13.5947 21.9107 11.5934C20.5853 9.24936 18.856 7.3027 16.968 5.41603C16.6413 6.06937 16.6667 6.33337 15.9947 7.3827C15.1224 5.06509 13.4843 3.11514 11.352 1.85603Z" fill="#270935"/>
</svg>
